<svg xmlns="http://www.w3.org/2000/svg" version="1.1" xmlns:xlink="http://www.w3.org/1999/xlink" xmlns:svgjs="http://svgjs.dev/svgjs" width="2500" height="2500" preserveAspectRatio="none" viewBox="0 0 2500 2500"><g mask="url(&quot;#SvgjsMask1147&quot;)" fill="none"><use xlink:href="#SvgjsG1167" transform="translate(0, 0)" fill="rgba(0, 128, 105, 1)"></use><use xlink:href="#SvgjsG1167" transform="translate(0, 390)" fill="rgba(0, 128, 105, 1)"></use><use xlink:href="#SvgjsG1167" transform="translate(0, 780)" fill="rgba(0, 128, 105, 1)"></use><use xlink:href="#SvgjsG1167" transform="translate(0, 1170)" fill="rgba(0, 128, 105, 1)"></use><use xlink:href="#SvgjsG1167" transform="translate(0, 1560)" fill="rgba(0, 128, 105, 1)"></use><use xlink:href="#SvgjsG1167" transform="translate(0, 1950)" fill="rgba(0, 128, 105, 1)"></use><use xlink:href="#SvgjsG1167" transform="translate(0, 2340)" fill="rgba(0, 128, 105, 1)"></use><use xlink:href="#SvgjsG1167" transform="translate(390, 0)" fill="rgba(0, 128, 105, 1)"></use><use xlink:href="#SvgjsG1167" transform="translate(390, 390)" fill="rgba(0, 128, 105, 1)"></use><use xlink:href="#SvgjsG1167" transform="translate(390, 780)" fill="rgba(0, 128, 105, 1)"></use><use xlink:href="#SvgjsG1167" transform="translate(390, 1170)" fill="rgba(0, 128, 105, 1)"></use><use xlink:href="#SvgjsG1167" transform="translate(390, 1560)" fill="rgba(0, 128, 105, 1)"></use><use xlink:href="#SvgjsG1167" transform="translate(390, 1950)" fill="rgba(0, 128, 105, 1)"></use><use xlink:href="#SvgjsG1167" transform="translate(390, 2340)" fill="rgba(0, 128, 105, 1)"></use><use xlink:href="#SvgjsG1167" transform="translate(780, 0)" fill="rgba(0, 128, 105, 1)"></use><use xlink:href="#SvgjsG1167" transform="translate(780, 390)" fill="rgba(0, 128, 105, 1)"></use><use xlink:href="#SvgjsG1167" transform="translate(780, 780)" fill="rgba(0, 128, 105, 1)"></use><use xlink:href="#SvgjsG1167" transform="translate(780, 1170)" fill="rgba(0, 128, 105, 1)"></use><use xlink:href="#SvgjsG1167" transform="translate(780, 1560)" fill="rgba(0, 128, 105, 1)"></use><use xlink:href="#SvgjsG1167" transform="translate(780, 1950)" fill="rgba(0, 128, 105, 1)"></use><use xlink:href="#SvgjsG1167" transform="translate(780, 2340)" fill="rgba(0, 128, 105, 1)"></use><use xlink:href="#SvgjsG1167" transform="translate(1170, 0)" fill="rgba(0, 128, 105, 1)"></use><use xlink:href="#SvgjsG1167" transform="translate(1170, 390)" fill="rgba(0, 128, 105, 1)"></use><use xlink:href="#SvgjsG1167" transform="translate(1170, 780)" fill="rgba(0, 128, 105, 1)"></use><use xlink:href="#SvgjsG1167" transform="translate(1170, 1170)" fill="rgba(0, 128, 105, 1)"></use><use xlink:href="#SvgjsG1167" transform="translate(1170, 1560)" fill="rgba(0, 128, 105, 1)"></use><use xlink:href="#SvgjsG1167" transform="translate(1170, 1950)" fill="rgba(0, 128, 105, 1)"></use><use xlink:href="#SvgjsG1167" transform="translate(1170, 2340)" fill="rgba(0, 128, 105, 1)"></use><use xlink:href="#SvgjsG1167" transform="translate(1560, 0)" fill="rgba(0, 128, 105, 1)"></use><use xlink:href="#SvgjsG1167" transform="translate(1560, 390)" fill="rgba(0, 128, 105, 1)"></use><use xlink:href="#SvgjsG1167" transform="translate(1560, 780)" fill="rgba(0, 128, 105, 1)"></use><use xlink:href="#SvgjsG1167" transform="translate(1560, 1170)" fill="rgba(0, 128, 105, 1)"></use><use xlink:href="#SvgjsG1167" transform="translate(1560, 1560)" fill="rgba(0, 128, 105, 1)"></use><use xlink:href="#SvgjsG1167" transform="translate(1560, 1950)" fill="rgba(0, 128, 105, 1)"></use><use xlink:href="#SvgjsG1167" transform="translate(1560, 2340)" fill="rgba(0, 128, 105, 1)"></use><use xlink:href="#SvgjsG1167" transform="translate(1950, 0)" fill="rgba(0, 128, 105, 1)"></use><use xlink:href="#SvgjsG1167" transform="translate(1950, 390)" fill="rgba(0, 128, 105, 1)"></use><use xlink:href="#SvgjsG1167" transform="translate(1950, 780)" fill="rgba(0, 128, 105, 1)"></use><use xlink:href="#SvgjsG1167" transform="translate(1950, 1170)" fill="rgba(0, 128, 105, 1)"></use><use xlink:href="#SvgjsG1167" transform="translate(1950, 1560)" fill="rgba(0, 128, 105, 1)"></use><use xlink:href="#SvgjsG1167" transform="translate(1950, 1950)" fill="rgba(0, 128, 105, 1)"></use><use xlink:href="#SvgjsG1167" transform="translate(1950, 2340)" fill="rgba(0, 128, 105, 1)"></use><use xlink:href="#SvgjsG1167" transform="translate(2340, 0)" fill="rgba(0, 128, 105, 1)"></use><use xlink:href="#SvgjsG1167" transform="translate(2340, 390)" fill="rgba(0, 128, 105, 1)"></use><use xlink:href="#SvgjsG1167" transform="translate(2340, 780)" fill="rgba(0, 128, 105, 1)"></use><use xlink:href="#SvgjsG1167" transform="translate(2340, 1170)" fill="rgba(0, 128, 105, 1)"></use><use xlink:href="#SvgjsG1167" transform="translate(2340, 1560)" fill="rgba(0, 128, 105, 1)"></use><use xlink:href="#SvgjsG1167" transform="translate(2340, 1950)" fill="rgba(0, 128, 105, 1)"></use><use xlink:href="#SvgjsG1167" transform="translate(2340, 2340)" fill="rgba(0, 128, 105, 1)"></use></g><defs><mask id="SvgjsMask1147"><rect width="2500" height="2500" fill="#ffffff"></rect></mask><g id="SvgjsG1166"><path d="M8 1.076C3.594 1.076 0.023 3.767 0.023 7.088c0 1.625 0.857 3.099 2.248 4.181l0.003 3.607 4.168-1.892c0.504 0.075 1.025 0.115 1.558 0.116 4.406 0 7.976-2.692 7.976-6.012C15.976 3.767 12.406 1.076 8 1.076z" fill-rule="evenodd"></path></g><g id="SvgjsG1150"><path d="M1.316 13.81h14.019V3.175H1.316v10.635z m12.302-9.643L9.143 8.635c-0.457 0.459-1.269 0.448-1.735-0.018l-4.444-4.45h10.648z m-11.31 0.693l3.626 3.638-3.637 3.644 0.007-7.278z m0.654 7.97l3.641-3.635 0.156 0.149c0.86 0.818 2.228 0.818 3.049 0l0.156-0.156 3.663 3.644h-10.667z m11.353-0.693L10.677 8.501 14.311 4.862V12.142z" fill-rule="evenodd"></path></g><g id="SvgjsG1165"><path d="M15.819 2.872L8 9.063 0.182 2.872z m0 8.863L11.116 8l4.703-3.734zM0.161 4.266l4.702 3.734L0.161 11.735z"></path><path d="M10.255 8.663L8.011 10.434 5.766 8.663 0.182 13.068h15.656z"></path></g><g id="SvgjsG1156"><path d="M8 2.022C3.815 2.022 0.422 4.579 0.422 7.733c0 1.544 0.814 2.944 2.135 3.972l0.003 3.427 3.961-1.798c0.479 0.071 0.973 0.11 1.48 0.11 4.185 0 7.578-2.557 7.578-5.711 0-3.154-3.392-5.711-7.577-5.711zM4.81 8.933a1.067 1.067 0 1 1 0-2.133 1.067 1.067 0 0 1 0 2.133z m3.186 0a1.067 1.067 0 1 1 0-2.133 1.067 1.067 0 0 1 0 2.133z m3.143 0c-0.589 0-1.067-0.478-1.067-1.066s0.477-1.067 1.067-1.067 1.067 0.478 1.067 1.067a1.067 1.067 0 0 1-1.067 1.066z"></path></g><g id="SvgjsG1158"><path d="M7.713 15.485C3.459 15.485 0 12.025 0 7.768 0 3.513 3.459 0.051 7.713 0.051S15.432 3.513 15.432 7.768c0 4.257-3.465 7.716-7.719 7.717z m0-1.91c3.201 0 5.81-2.604 5.81-5.809 0-3.199-2.61-5.807-5.81-5.807-3.202 0-5.804 2.609-5.804 5.807-0.001 3.206 2.602 5.809 5.804 5.809z"></path><path d="M7.753 8.787a0.574 0.574 0 0 1-0.554-0.042 0.578 0.578 0 0 1-0.259-0.399L6.931 3.862a0.58 0.58 0 0 1 1.162 0v3.478l2.975-1.4a0.578 0.578 0 0 1 0.773 0.275c0.138 0.292 0.011 0.637-0.276 0.774l-3.81 1.798z"></path></g><g id="SvgjsG1164"><path d="M3.755 2.315h2.494v11.128h-2.494zM13.507 0.537H16v11.261h-2.493z"></path><path d="M4.451 5.556l-0.696-3.24L16 0v3.167z"></path><path d="M0 13.443a3.124 2.606 0 1 0 6.249 0 3.124 2.606 0 1 0-6.249 0"></path><path d="M9.751 11.798a3.124 2.606 0 1 0 6.249 0 3.124 2.606 0 1 0-6.249 0"></path></g><g id="SvgjsG1162"><path d="M11.675 13.031H3.563V2.436h8.112v10.595z m-4.054 1.54a0.457 0.457 0 1 1 0-0.912 0.457 0.457 0 0 1 0 0.912zM6.921 1.287h1.395c0.196 0 0.196 0.356 0 0.356h-1.397c-0.199 0-0.199-0.356 0-0.356zM11.495 0.409H3.744C3.413 0.409 3.143 0.761 3.143 1.191V14.276c0 0.427 0.267 0.779 0.601 0.778h7.751c0.332 0 0.604-0.35 0.605-0.778V1.191c0-0.432-0.272-0.782-0.605-0.782z" fill-rule="evenodd"></path></g><g id="SvgjsG1155"><path d="M0 10.392a3.585 3.585 0 1 0 7.169 0 3.585 3.585 0 1 0-7.169 0"></path><path d="M7.997 9.975a4.001 4.001 0 1 0 8.003 0 4.001 4.001 0 1 0-8.003 0"></path><path d="M2.655 7.156a5.054 5.054 0 1 0 10.108 0 5.054 5.054 0 1 0-10.108 0"></path><path d="M3.585 7.983H12.5v5.993H3.585z"></path></g><g id="SvgjsG1151"><path d="M3.234 0.019l9.577 8.939-4.629 0.399 2.634 5.826-1.756 0.798-2.555-5.904-3.272 3.113V0.021"></path></g><g id="SvgjsG1159"><path d="M13.759 16H2.203V0H7.461v6.173h6.298z"></path><path d="M8.597 0v5.162h5.162z"></path></g><g id="SvgjsG1157"><path d="M6.498 9.304L12.139 3.663l1.565 1.566-5.641 5.641z"></path><path d="M6.8 0.457h2.541v8.028H6.8z"></path><path d="M8.072 10.876L2.429 5.238l1.563-1.566L9.636 9.313zM1.2 13.277h13.733v2.266H1.2z"></path><path d="M0.733 9.143h2.267v6.4h-2.267z m12.267 0h2.267v6.4h-2.267z"></path></g><g id="SvgjsG1160"><path d="M0 6.205v9.789h15.439V6.205H0z m8.544 4.62V13.641h-1.669V10.824c-0.349-0.257-0.576-0.669-0.576-1.136 0-0.779 0.632-1.411 1.412-1.41s1.411 0.632 1.411 1.41c0 0.467-0.227 0.879-0.576 1.136l-0.002 0.001z"></path><path d="M5.254 0.572c-3.126 1.327-4.589 4.949-3.262 8.075l2.342-0.995L13.328 3.834C12.001 0.709 8.379-0.754 5.254 0.572z m-0.938 7.088c-0.782-1.844 0.081-3.98 1.925-4.762s3.98 0.08 4.762 1.924L4.317 7.66l-0.001 0z"></path></g><g id="SvgjsG1153"><path d="M15.233 9.431c0.295 0 0.569-0.239 0.61-0.532 0 0 0.056-0.411 0.056-0.899s-0.056-0.899-0.056-0.899c-0.041-0.292-0.315-0.531-0.61-0.53h-1.524c-0.295 0-0.602-0.188-0.681-0.418s-0.188-0.967 0.021-1.176l1.078-1.077c0.209-0.209 0.225-0.565 0.036-0.792l-1.268-1.268c-0.227-0.189-0.583-0.173-0.792 0.036l-1.078 1.077c-0.208 0.209-0.556 0.293-0.772 0.187s-0.822-0.552-0.821-0.847V0.767c0-0.295-0.239-0.569-0.531-0.61 0 0-0.411-0.057-0.9-0.056s-0.899 0.057-0.899 0.056c-0.293 0.04-0.532 0.315-0.532 0.61v1.524c0 0.295-0.188 0.601-0.418 0.681s-0.967 0.188-1.176-0.021l-1.078-1.078C3.689 1.665 3.333 1.649 3.107 1.837l-1.268 1.268c-0.189 0.227-0.173 0.583 0.036 0.792l1.077 1.078c0.209 0.209 0.293 0.556 0.187 0.772s-0.552 0.822-0.847 0.822H0.767c-0.295 0-0.569 0.239-0.61 0.531 0 0-0.057 0.411-0.056 0.899s0.057 0.899 0.056 0.9c0.04 0.293 0.315 0.532 0.61 0.532h1.525c0.295 0 0.601 0.188 0.681 0.417 0.079 0.23 0.188 0.967-0.02 1.176l-1.078 1.077C1.667 12.311 1.651 12.667 1.84 12.893l1.267 1.268c0.227 0.189 0.583 0.173 0.792-0.036l1.077-1.077c0.209-0.208 0.556-0.292 0.772-0.187s0.821 0.553 0.822 0.848v1.524c0 0.295 0.239 0.569 0.532 0.61 0 0 0.411 0.057 0.899 0.057s0.899-0.056 0.899-0.057c0.293-0.04 0.531-0.315 0.532-0.609v-1.524c0-0.295 0.188-0.602 0.418-0.681 0.23-0.079 0.967-0.188 1.176 0.021l1.077 1.077c0.209 0.209 0.565 0.225 0.792 0.036l1.268-1.267c0.189-0.227 0.173-0.583-0.036-0.792l-1.078-1.077c-0.209-0.209-0.293-0.557-0.186-0.773 0.106-0.216 0.552-0.822 0.847-0.822h1.525zM8 10.892c-1.597 0-2.891-1.294-2.891-2.892 0-1.596 1.295-2.891 2.891-2.891S10.892 6.404 10.892 8 9.597 10.892 8 10.892z"></path></g><g id="SvgjsG1149"><path d="M9.412 5.113c1.273 0 2.378 0.701 2.988 1.734l3.596 0.004v-1.949c0-0.725-0.584-1.314-1.299-1.314H1.295C0.578 3.588 0 4.176 0 4.902l0.004 1.932 6.418 0.005c0.614-1.029 1.715-1.725 2.99-1.725M3.361 2.97h-1.192l-0.138 0.434h1.429l-0.099-0.434zM14.11 2.738h-1.587L12.242 3.408H14.368l-0.258-0.67zM8.662 3.177h-1.366V2.508h1.366v0.669zM9.914 2.24h-3.857l-0.795 1.176h5.38L9.914 2.24z m2.672 4.955c0.199 0.443 0.316 0.93 0.316 1.449 0 1.949-1.563 3.531-3.49 3.531-1.93 0-3.493-1.582-3.493-3.531 0-0.519 0.116-1.006 0.316-1.451H0V12.514c0 0.721 0.577 1.309 1.295 1.309h13.401c0.716 0 1.299-0.588 1.3-1.309L16 7.195H12.586z"></path><path d="M11.315 7.484a1.717 1.717 0 0 0-0.199-0.278c-0.408-0.496-1.018-0.822-1.704-0.823-0.69 0-1.299 0.324-1.707 0.818-0.075 0.09-0.144 0.182-0.203 0.283-0.205 0.34-0.33 0.734-0.329 1.16 0 1.246 1.002 2.258 2.237 2.258 1.23 0 2.232-1.013 2.232-2.259 0-0.427-0.122-0.819-0.329-1.16"></path></g><g id="SvgjsG1163"><path d="M1.396 3.591v6.948h-1.04A0.356 0.356 0 0 1 0 10.182V1.217C0 0.914 0.227 0.667 0.537 0.667h4.593C5.44 0.667 5.667 0.913 5.667 1.216v0.527h7.102c0.198 0 0.357 0.159 0.357 0.355v2.016h-6.064V3.587c0-0.303-0.226-0.549-0.537-0.55H1.933c-0.311 0-0.537 0.25-0.537 0.555z" fill-rule="evenodd"></path><path d="M15.918 14.746c0 0.197-0.159 0.355-0.357 0.355H3.149c-0.198 0-0.357-0.158-0.356-0.355V5.78c0-0.303 0.227-0.55 0.536-0.55h4.593c0.311 0 0.538 0.246 0.538 0.549v0.527h7.101c0.198 0 0.357 0.159 0.357 0.355v8.085z" fill-rule="evenodd"></path></g><g id="SvgjsG1148"><path d="M0 5.2h3.15v5.6H0z"></path><path d="M6.257 14.325L2.407 10.8v-5.511l3.85-3.614L7.141 8z"></path><path d="M6.257 1.675S7.14 4.852 7.14 8s-0.883 6.325-0.883 6.325m7.927 0.947l-1.304-0.671c0.015-0.03 1.562-3.093 1.562-6.825 0-3.707-1.789-6.755-1.807-6.785l1.258-0.754c0.082 0.137 2.015 3.412 2.015 7.538 0 4.101-1.653 7.361-1.724 7.497z"></path><path d="M11.799 13.516l-1.304-0.671c0.011-0.021 1.138-2.258 1.137-4.979 0-2.712-1.301-4.915-1.313-4.937l1.257-0.753c0.063 0.104 1.523 2.579 1.523 5.691 0 3.088-1.248 5.545-1.302 5.649z"></path><path d="M9.543 11.59l-1.304-0.671c0.006-0.012 0.696-1.387 0.696-3.053 0-1.64-0.793-3-0.801-3.013l1.259-0.752c0.041 0.069 1.009 1.708 1.01 3.765 0 2.033-0.823 3.656-0.859 3.724z"></path></g><g id="SvgjsG1161"><path d="M8 14.66l5.904-5.908c1.836-1.836 1.8-4.512 0.132-6.174A4.268 4.268 0 0 0 8 2.58a4.264 4.264 0 0 0-6.03-0.02C0.3 4.24 0.26 6.92 2.1 8.744L8 14.66z"></path></g><g id="SvgjsG1152"><path d="M16 14.068H0V2h16v12.068z m-14.107-1.117h12.214L10.088 8.837l-0.761 0.766c-0.33 0.329-0.801 0.518-1.297 0.517l-0.008 0c-0.498-0.002-0.971-0.195-1.299-0.529l-0.773-0.783-4.057 4.144zM1.116 3.916v8.233L5.165 8.014 1.116 3.916zM10.874 8.045l4.01 4.104V4.008l-4.01 4.037zM1.896 3.117l5.622 5.691c0.122 0.124 0.307 0.195 0.508 0.195h0.003c0.198 0 0.388-0.07 0.506-0.189L14.196 3.116H1.896z"></path></g><g id="SvgjsG1154"><path d="M16.012 2.226H8.034V0.013L16.012 0.012z"></path><path d="M7.732 6.485l5.676-5.676 1.797 1.796-5.676 5.678z"></path><path d="M15.997 0.014l0.003 7.978-2.212 0.001-0.003-7.979zM0.4 3.133h2.267v11.6H0.4z m11.132 7.008h2.267V15.067h-2.267z"></path><path d="M0.4 2.226h5.421v2.266H0.4zM0.4 12.8h13.399v2.267H0.4z"></path></g><g id="SvgjsG1167"><use xlink:href="#SvgjsG1148" transform="translate(0, 0) scale(1.5)" fill="rgba(0, 128, 105, 1)"></use><use xlink:href="#SvgjsG1149" transform="translate(0, 39) scale(1.5)" fill="rgba(0, 128, 105, 1)"></use><use xlink:href="#SvgjsG1148" transform="translate(0, 78) scale(1.5)" fill="rgba(0, 128, 105, 1)"></use><use xlink:href="#SvgjsG1150" transform="translate(0, 117) scale(1.5)" fill="rgba(0, 128, 105, 1)"></use><use xlink:href="#SvgjsG1150" transform="translate(0, 156) scale(1.5)" fill="rgba(0, 128, 105, 1)"></use><use xlink:href="#SvgjsG1149" transform="translate(0, 195) scale(1.5)" fill="rgba(0, 128, 105, 1)"></use><use xlink:href="#SvgjsG1151" transform="translate(0, 234) scale(1.5)" fill="rgba(0, 128, 105, 1)"></use><use xlink:href="#SvgjsG1152" transform="translate(0, 273) scale(1.5)" fill="rgba(0, 128, 105, 1)"></use><use xlink:href="#SvgjsG1153" transform="translate(0, 312) scale(1.5)" fill="rgba(0, 128, 105, 1)"></use><use xlink:href="#SvgjsG1154" transform="translate(0, 351) scale(1.5)" fill="rgba(0, 128, 105, 1)"></use><use xlink:href="#SvgjsG1155" transform="translate(39, 0) scale(1.5)" fill="rgba(0, 128, 105, 1)"></use><use xlink:href="#SvgjsG1152" transform="translate(39, 39) scale(1.5)" fill="rgba(0, 128, 105, 1)"></use><use xlink:href="#SvgjsG1156" transform="translate(39, 78) scale(1.5)" fill="rgba(0, 128, 105, 1)"></use><use xlink:href="#SvgjsG1157" transform="translate(39, 117) scale(1.5)" fill="rgba(0, 128, 105, 1)"></use><use xlink:href="#SvgjsG1158" transform="translate(39, 156) scale(1.5)" fill="rgba(0, 128, 105, 1)"></use><use xlink:href="#SvgjsG1159" transform="translate(39, 195) scale(1.5)" fill="rgba(0, 128, 105, 1)"></use><use xlink:href="#SvgjsG1160" transform="translate(39, 234) scale(1.5)" fill="rgba(0, 128, 105, 1)"></use><use xlink:href="#SvgjsG1156" transform="translate(39, 273) scale(1.5)" fill="rgba(0, 128, 105, 1)"></use><use xlink:href="#SvgjsG1161" transform="translate(39, 312) scale(1.5)" fill="rgba(0, 128, 105, 1)"></use><use xlink:href="#SvgjsG1148" transform="translate(39, 351) scale(1.5)" fill="rgba(0, 128, 105, 1)"></use><use xlink:href="#SvgjsG1162" transform="translate(78, 0) scale(1.5)" fill="rgba(0, 128, 105, 1)"></use><use xlink:href="#SvgjsG1154" transform="translate(78, 39) scale(1.5)" fill="rgba(0, 128, 105, 1)"></use><use xlink:href="#SvgjsG1158" transform="translate(78, 78) scale(1.5)" fill="rgba(0, 128, 105, 1)"></use><use xlink:href="#SvgjsG1155" transform="translate(78, 117) scale(1.5)" fill="rgba(0, 128, 105, 1)"></use><use xlink:href="#SvgjsG1157" transform="translate(78, 156) scale(1.5)" fill="rgba(0, 128, 105, 1)"></use><use xlink:href="#SvgjsG1150" transform="translate(78, 195) scale(1.5)" fill="rgba(0, 128, 105, 1)"></use><use xlink:href="#SvgjsG1155" transform="translate(78, 234) scale(1.5)" fill="rgba(0, 128, 105, 1)"></use><use xlink:href="#SvgjsG1156" transform="translate(78, 273) scale(1.5)" fill="rgba(0, 128, 105, 1)"></use><use xlink:href="#SvgjsG1163" transform="translate(78, 312) scale(1.5)" fill="rgba(0, 128, 105, 1)"></use><use xlink:href="#SvgjsG1157" transform="translate(78, 351) scale(1.5)" fill="rgba(0, 128, 105, 1)"></use><use xlink:href="#SvgjsG1149" transform="translate(117, 0) scale(1.5)" fill="rgba(0, 128, 105, 1)"></use><use xlink:href="#SvgjsG1152" transform="translate(117, 39) scale(1.5)" fill="rgba(0, 128, 105, 1)"></use><use xlink:href="#SvgjsG1156" transform="translate(117, 78) scale(1.5)" fill="rgba(0, 128, 105, 1)"></use><use xlink:href="#SvgjsG1154" transform="translate(117, 117) scale(1.5)" fill="rgba(0, 128, 105, 1)"></use><use xlink:href="#SvgjsG1162" transform="translate(117, 156) scale(1.5)" fill="rgba(0, 128, 105, 1)"></use><use xlink:href="#SvgjsG1155" transform="translate(117, 195) scale(1.5)" fill="rgba(0, 128, 105, 1)"></use><use xlink:href="#SvgjsG1153" transform="translate(117, 234) scale(1.5)" fill="rgba(0, 128, 105, 1)"></use><use xlink:href="#SvgjsG1148" transform="translate(117, 273) scale(1.5)" fill="rgba(0, 128, 105, 1)"></use><use xlink:href="#SvgjsG1156" transform="translate(117, 312) scale(1.5)" fill="rgba(0, 128, 105, 1)"></use><use xlink:href="#SvgjsG1158" transform="translate(117, 351) scale(1.5)" fill="rgba(0, 128, 105, 1)"></use><use xlink:href="#SvgjsG1150" transform="translate(156, 0) scale(1.5)" fill="rgba(0, 128, 105, 1)"></use><use xlink:href="#SvgjsG1159" transform="translate(156, 39) scale(1.5)" fill="rgba(0, 128, 105, 1)"></use><use xlink:href="#SvgjsG1152" transform="translate(156, 78) scale(1.5)" fill="rgba(0, 128, 105, 1)"></use><use xlink:href="#SvgjsG1152" transform="translate(156, 117) scale(1.5)" fill="rgba(0, 128, 105, 1)"></use><use xlink:href="#SvgjsG1153" transform="translate(156, 156) scale(1.5)" fill="rgba(0, 128, 105, 1)"></use><use xlink:href="#SvgjsG1150" transform="translate(156, 195) scale(1.5)" fill="rgba(0, 128, 105, 1)"></use><use xlink:href="#SvgjsG1157" transform="translate(156, 234) scale(1.5)" fill="rgba(0, 128, 105, 1)"></use><use xlink:href="#SvgjsG1162" transform="translate(156, 273) scale(1.5)" fill="rgba(0, 128, 105, 1)"></use><use xlink:href="#SvgjsG1153" transform="translate(156, 312) scale(1.5)" fill="rgba(0, 128, 105, 1)"></use><use xlink:href="#SvgjsG1156" transform="translate(156, 351) scale(1.5)" fill="rgba(0, 128, 105, 1)"></use><use xlink:href="#SvgjsG1148" transform="translate(195, 0) scale(1.5)" fill="rgba(0, 128, 105, 1)"></use><use xlink:href="#SvgjsG1148" transform="translate(195, 39) scale(1.5)" fill="rgba(0, 128, 105, 1)"></use><use xlink:href="#SvgjsG1160" transform="translate(195, 78) scale(1.5)" fill="rgba(0, 128, 105, 1)"></use><use xlink:href="#SvgjsG1164" transform="translate(195, 117) scale(1.5)" fill="rgba(0, 128, 105, 1)"></use><use xlink:href="#SvgjsG1161" transform="translate(195, 156) scale(1.5)" fill="rgba(0, 128, 105, 1)"></use><use xlink:href="#SvgjsG1165" transform="translate(195, 195) scale(1.5)" fill="rgba(0, 128, 105, 1)"></use><use xlink:href="#SvgjsG1156" transform="translate(195, 234) scale(1.5)" fill="rgba(0, 128, 105, 1)"></use><use xlink:href="#SvgjsG1156" transform="translate(195, 273) scale(1.5)" fill="rgba(0, 128, 105, 1)"></use><use xlink:href="#SvgjsG1156" transform="translate(195, 312) scale(1.5)" fill="rgba(0, 128, 105, 1)"></use><use xlink:href="#SvgjsG1157" transform="translate(195, 351) scale(1.5)" fill="rgba(0, 128, 105, 1)"></use><use xlink:href="#SvgjsG1166" transform="translate(234, 0) scale(1.5)" fill="rgba(0, 128, 105, 1)"></use><use xlink:href="#SvgjsG1160" transform="translate(234, 39) scale(1.5)" fill="rgba(0, 128, 105, 1)"></use><use xlink:href="#SvgjsG1158" transform="translate(234, 78) scale(1.5)" fill="rgba(0, 128, 105, 1)"></use><use xlink:href="#SvgjsG1162" transform="translate(234, 117) scale(1.5)" fill="rgba(0, 128, 105, 1)"></use><use xlink:href="#SvgjsG1161" transform="translate(234, 156) scale(1.5)" fill="rgba(0, 128, 105, 1)"></use><use xlink:href="#SvgjsG1152" transform="translate(234, 195) scale(1.5)" fill="rgba(0, 128, 105, 1)"></use><use xlink:href="#SvgjsG1160" transform="translate(234, 234) scale(1.5)" fill="rgba(0, 128, 105, 1)"></use><use xlink:href="#SvgjsG1153" transform="translate(234, 273) scale(1.5)" fill="rgba(0, 128, 105, 1)"></use><use xlink:href="#SvgjsG1151" transform="translate(234, 312) scale(1.5)" fill="rgba(0, 128, 105, 1)"></use><use xlink:href="#SvgjsG1159" transform="translate(234, 351) scale(1.5)" fill="rgba(0, 128, 105, 1)"></use><use xlink:href="#SvgjsG1162" transform="translate(273, 0) scale(1.5)" fill="rgba(0, 128, 105, 1)"></use><use xlink:href="#SvgjsG1150" transform="translate(273, 39) scale(1.5)" fill="rgba(0, 128, 105, 1)"></use><use xlink:href="#SvgjsG1149" transform="translate(273, 78) scale(1.5)" fill="rgba(0, 128, 105, 1)"></use><use xlink:href="#SvgjsG1153" transform="translate(273, 117) scale(1.5)" fill="rgba(0, 128, 105, 1)"></use><use xlink:href="#SvgjsG1166" transform="translate(273, 156) scale(1.5)" fill="rgba(0, 128, 105, 1)"></use><use xlink:href="#SvgjsG1151" transform="translate(273, 195) scale(1.5)" fill="rgba(0, 128, 105, 1)"></use><use xlink:href="#SvgjsG1166" transform="translate(273, 234) scale(1.5)" fill="rgba(0, 128, 105, 1)"></use><use xlink:href="#SvgjsG1155" transform="translate(273, 273) scale(1.5)" fill="rgba(0, 128, 105, 1)"></use><use xlink:href="#SvgjsG1151" transform="translate(273, 312) scale(1.5)" fill="rgba(0, 128, 105, 1)"></use><use xlink:href="#SvgjsG1160" transform="translate(273, 351) scale(1.5)" fill="rgba(0, 128, 105, 1)"></use><use xlink:href="#SvgjsG1161" transform="translate(312, 0) scale(1.5)" fill="rgba(0, 128, 105, 1)"></use><use xlink:href="#SvgjsG1160" transform="translate(312, 39) scale(1.5)" fill="rgba(0, 128, 105, 1)"></use><use xlink:href="#SvgjsG1162" transform="translate(312, 78) scale(1.5)" fill="rgba(0, 128, 105, 1)"></use><use xlink:href="#SvgjsG1152" transform="translate(312, 117) scale(1.5)" fill="rgba(0, 128, 105, 1)"></use><use xlink:href="#SvgjsG1160" transform="translate(312, 156) scale(1.5)" fill="rgba(0, 128, 105, 1)"></use><use xlink:href="#SvgjsG1166" transform="translate(312, 195) scale(1.5)" fill="rgba(0, 128, 105, 1)"></use><use xlink:href="#SvgjsG1155" transform="translate(312, 234) scale(1.5)" fill="rgba(0, 128, 105, 1)"></use><use xlink:href="#SvgjsG1160" transform="translate(312, 273) scale(1.5)" fill="rgba(0, 128, 105, 1)"></use><use xlink:href="#SvgjsG1159" transform="translate(312, 312) scale(1.5)" fill="rgba(0, 128, 105, 1)"></use><use xlink:href="#SvgjsG1150" transform="translate(312, 351) scale(1.5)" fill="rgba(0, 128, 105, 1)"></use><use xlink:href="#SvgjsG1154" transform="translate(351, 0) scale(1.5)" fill="rgba(0, 128, 105, 1)"></use><use xlink:href="#SvgjsG1149" transform="translate(351, 39) scale(1.5)" fill="rgba(0, 128, 105, 1)"></use><use xlink:href="#SvgjsG1162" transform="translate(351, 78) scale(1.5)" fill="rgba(0, 128, 105, 1)"></use><use xlink:href="#SvgjsG1159" transform="translate(351, 117) scale(1.5)" fill="rgba(0, 128, 105, 1)"></use><use xlink:href="#SvgjsG1166" transform="translate(351, 156) scale(1.5)" fill="rgba(0, 128, 105, 1)"></use><use xlink:href="#SvgjsG1152" transform="translate(351, 195) scale(1.5)" fill="rgba(0, 128, 105, 1)"></use><use xlink:href="#SvgjsG1159" transform="translate(351, 234) scale(1.5)" fill="rgba(0, 128, 105, 1)"></use><use xlink:href="#SvgjsG1159" transform="translate(351, 273) scale(1.5)" fill="rgba(0, 128, 105, 1)"></use><use xlink:href="#SvgjsG1158" transform="translate(351, 312) scale(1.5)" fill="rgba(0, 128, 105, 1)"></use><use xlink:href="#SvgjsG1162" transform="translate(351, 351) scale(1.5)" fill="rgba(0, 128, 105, 1)"></use></g></defs></svg>